<svg width="2609" height="591" viewBox="0 0 2609 591" fill="none" xmlns="http://www.w3.org/2000/svg">
<path d="M0.482422 582V0.181641H378.892V88.5339H105.88V246.488H359.289V334.841H105.88V493.648H381.164V582H0.482422Z" fill="url(#paint0_linear_17054_10)"/>
<path d="M603.806 589.67C569.526 589.67 538.844 580.863 511.761 563.25C484.677 545.636 463.276 520.068 447.556 486.545C431.837 453.023 423.977 412.303 423.977 364.386C423.977 315.901 431.931 274.992 447.84 241.659C463.939 208.136 485.624 182.852 512.897 165.807C540.17 148.572 570.568 139.954 604.09 139.954C629.659 139.954 650.681 144.31 667.159 153.023C683.636 161.545 696.704 171.867 706.363 183.988C716.022 195.92 723.503 207.189 728.806 217.795H733.068V0.181641H836.193V582H735.056V513.25H728.806C723.503 523.856 715.833 535.125 705.795 547.057C695.757 558.799 682.499 568.837 666.022 577.17C649.545 585.504 628.806 589.67 603.806 589.67ZM632.5 505.295C654.28 505.295 672.84 499.424 688.181 487.682C703.522 475.75 715.17 459.178 723.125 437.966C731.079 416.754 735.056 392.038 735.056 363.818C735.056 335.598 731.079 311.072 723.125 290.238C715.359 269.405 703.806 253.212 688.465 241.659C673.314 230.106 654.659 224.329 632.5 224.329C609.583 224.329 590.454 230.295 575.113 242.227C559.772 254.159 548.219 270.636 540.454 291.659C532.689 312.682 528.806 336.735 528.806 363.818C528.806 391.091 532.689 415.428 540.454 436.829C548.409 458.042 560.056 474.803 575.397 487.113C590.928 499.235 609.962 505.295 632.5 505.295Z" fill="url(#paint1_linear_17054_10)"/>
<path d="M995.838 582L872.542 145.636H977.372L1054.08 452.454H1058.05L1136.46 145.636H1240.16L1318.56 450.75H1322.83L1398.39 145.636H1503.51L1379.93 582H1272.83L1191.01 287.113H1185.04L1103.22 582H995.838Z" fill="url(#paint2_linear_17054_10)"/>
<path d="M1660.88 590.807C1633.23 590.807 1608.32 585.882 1586.16 576.034C1564.19 565.996 1546.77 551.223 1533.89 531.716C1521.2 512.208 1514.86 488.155 1514.86 459.557C1514.86 434.935 1519.4 414.576 1528.49 398.477C1537.58 382.379 1549.99 369.5 1565.71 359.841C1581.43 350.182 1599.14 342.89 1618.83 337.966C1638.72 332.852 1659.27 329.159 1680.48 326.886C1706.05 324.235 1726.79 321.867 1742.7 319.784C1758.61 317.511 1770.16 314.102 1777.36 309.557C1784.74 304.822 1788.44 297.53 1788.44 287.682V285.977C1788.44 264.576 1782.09 248.004 1769.4 236.261C1756.71 224.519 1738.44 218.648 1714.57 218.648C1689.38 218.648 1669.4 224.14 1654.63 235.125C1640.05 246.11 1630.2 259.083 1625.08 274.045L1529.06 260.409C1536.64 233.894 1549.14 211.735 1566.56 193.932C1583.99 175.939 1605.29 162.492 1630.48 153.591C1655.67 144.5 1683.51 139.954 1714.01 139.954C1735.03 139.954 1755.96 142.417 1776.79 147.341C1797.62 152.265 1816.66 160.409 1833.89 171.773C1851.13 182.947 1864.95 198.193 1875.37 217.511C1885.97 236.829 1891.28 260.977 1891.28 289.954V582H1792.41V522.057H1789.01C1782.76 534.178 1773.95 545.542 1762.58 556.148C1751.41 566.564 1737.3 574.992 1720.26 581.432C1703.4 587.682 1683.61 590.807 1660.88 590.807ZM1687.58 515.238C1708.23 515.238 1726.13 511.166 1741.28 503.023C1756.43 494.689 1768.08 483.704 1776.22 470.068C1784.55 456.432 1788.72 441.564 1788.72 425.466V374.045C1785.5 376.697 1780.01 379.159 1772.24 381.432C1764.67 383.704 1756.15 385.693 1746.68 387.398C1737.21 389.102 1727.83 390.617 1718.55 391.943C1709.27 393.269 1701.22 394.405 1694.4 395.352C1679.06 397.435 1665.33 400.845 1653.21 405.579C1641.09 410.314 1631.52 416.943 1624.52 425.466C1617.51 433.799 1614.01 444.595 1614.01 457.852C1614.01 476.792 1620.92 491.091 1634.74 500.75C1648.57 510.409 1666.18 515.238 1687.58 515.238Z" fill="url(#paint3_linear_17054_10)"/>
<path d="M1954.69 582V145.636H2054.4V218.363H2058.95C2066.9 193.174 2080.54 173.761 2099.86 160.125C2119.36 146.299 2141.62 139.386 2166.62 139.386C2172.3 139.386 2178.65 139.67 2185.65 140.238C2192.85 140.617 2198.82 141.28 2203.55 142.227V236.829C2199.19 235.314 2192.28 233.988 2182.81 232.852C2173.53 231.526 2164.54 230.863 2155.82 230.863C2137.07 230.863 2120.22 234.935 2105.26 243.079C2090.48 251.034 2078.83 262.113 2070.31 276.318C2061.79 290.523 2057.53 306.905 2057.53 325.466V582H1954.69Z" fill="url(#paint4_linear_17054_10)"/>
<path d="M2375.84 589.67C2341.56 589.67 2310.88 580.863 2283.79 563.25C2256.71 545.636 2235.31 520.068 2219.59 486.545C2203.87 453.023 2196.01 412.303 2196.01 364.386C2196.01 315.901 2203.96 274.992 2219.87 241.659C2235.97 208.136 2257.66 182.852 2284.93 165.807C2312.2 148.572 2342.6 139.954 2376.12 139.954C2401.69 139.954 2422.71 144.31 2439.19 153.023C2455.67 161.545 2468.74 171.867 2478.39 183.988C2488.05 195.92 2495.53 207.189 2500.84 217.795H2505.1V0.181641H2608.22V582H2507.09V513.25H2500.84C2495.53 523.856 2487.86 535.125 2477.83 547.057C2467.79 558.799 2454.53 568.837 2438.05 577.17C2421.58 585.504 2400.84 589.67 2375.84 589.67ZM2404.53 505.295C2426.31 505.295 2444.87 499.424 2460.21 487.682C2475.55 475.75 2487.2 459.178 2495.16 437.966C2503.11 416.754 2507.09 392.038 2507.09 363.818C2507.09 335.598 2503.11 311.072 2495.16 290.238C2487.39 269.405 2475.84 253.212 2460.5 241.659C2445.35 230.106 2426.69 224.329 2404.53 224.329C2381.61 224.329 2362.49 230.295 2347.14 242.227C2331.8 254.159 2320.25 270.636 2312.49 291.659C2304.72 312.682 2300.84 336.735 2300.84 363.818C2300.84 391.091 2304.72 415.428 2312.49 436.829C2320.44 458.042 2332.09 474.803 2347.43 487.113C2362.96 499.235 2381.99 505.295 2404.53 505.295Z" fill="url(#paint5_linear_17054_10)"/>
<defs>
<linearGradient id="paint0_linear_17054_10" x1="1772.36" y1="-27.692" x2="1777.31" y2="566.806" gradientUnits="userSpaceOnUse">
<stop stop-color="#F2EDE6"/>
<stop offset="1" stop-color="#1F1D1D"/>
</linearGradient>
<linearGradient id="paint1_linear_17054_10" x1="1772.36" y1="-27.692" x2="1777.31" y2="566.806" gradientUnits="userSpaceOnUse">
<stop stop-color="#F2EDE6"/>
<stop offset="1" stop-color="#1F1D1D"/>
</linearGradient>
<linearGradient id="paint2_linear_17054_10" x1="1772.36" y1="-27.692" x2="1777.31" y2="566.806" gradientUnits="userSpaceOnUse">
<stop stop-color="#F2EDE6"/>
<stop offset="1" stop-color="#1F1D1D"/>
</linearGradient>
<linearGradient id="paint3_linear_17054_10" x1="1772.36" y1="-27.692" x2="1777.31" y2="566.806" gradientUnits="userSpaceOnUse">
<stop stop-color="#F2EDE6"/>
<stop offset="1" stop-color="#1F1D1D"/>
</linearGradient>
<linearGradient id="paint4_linear_17054_10" x1="1772.36" y1="-27.692" x2="1777.31" y2="566.806" gradientUnits="userSpaceOnUse">
<stop stop-color="#F2EDE6"/>
<stop offset="1" stop-color="#1F1D1D"/>
</linearGradient>
<linearGradient id="paint5_linear_17054_10" x1="1772.36" y1="-27.692" x2="1777.31" y2="566.806" gradientUnits="userSpaceOnUse">
<stop stop-color="#F2EDE6"/>
<stop offset="1" stop-color="#1F1D1D"/>
</linearGradient>
</defs>
</svg>
